<?xml version="1.0" standalone="no"?>
<!DOCTYPE svg PUBLIC "-//W3C//DTD SVG 20010904//EN"
 "http://www.w3.org/TR/2001/REC-SVG-20010904/DTD/svg10.dtd">
<svg version="1.0" xmlns="http://www.w3.org/2000/svg"
 width="700.000000pt" height="700.000000pt" viewBox="0 0 700.000000 700.000000"
 preserveAspectRatio="xMidYMid meet">
<metadata>
Created by potrace 1.14, written by Peter Selinger 2001-2017
</metadata>
<g transform="translate(0.000000,700.000000) scale(0.100000,-0.100000)"
fill="#000000" stroke="none">
<path d="M3149 6815 c-96 -11 -179 -23 -185 -27 -6 -4 -51 -12 -100 -18 -49
-6 -105 -14 -124 -19 -147 -39 -195 -53 -270 -79 -47 -17 -101 -33 -121 -36
-21 -4 -48 -15 -60 -25 -13 -10 -35 -22 -49 -26 -14 -4 -35 -13 -47 -21 -14
-9 -24 -10 -28 -4 -4 6 -26 -3 -53 -23 -26 -19 -63 -37 -83 -41 -21 -4 -42
-13 -49 -21 -6 -7 -26 -17 -43 -21 -18 -3 -34 -9 -37 -13 -10 -13 -104 -71
-115 -71 -7 0 -20 -9 -30 -20 -24 -26 -85 -62 -85 -50 0 6 -9 1 -19 -9 -11
-11 -46 -36 -78 -56 -32 -21 -62 -44 -66 -51 -4 -8 -15 -14 -24 -14 -9 0 -14
-3 -10 -6 7 -7 -58 -54 -74 -54 -5 0 -12 -7 -15 -14 -3 -8 -30 -33 -59 -55
-29 -22 -84 -70 -121 -106 -38 -37 -88 -81 -111 -98 -24 -16 -45 -38 -48 -48
-4 -11 -37 -49 -74 -86 -37 -38 -91 -100 -119 -140 -29 -39 -59 -74 -68 -77
-8 -3 -13 -10 -9 -16 3 -5 -10 -26 -30 -45 -19 -20 -35 -42 -35 -50 0 -8 -5
-15 -10 -15 -6 0 -15 -11 -20 -24 -5 -13 -25 -45 -44 -71 -20 -25 -43 -61 -52
-80 -9 -19 -20 -35 -25 -35 -5 0 -9 -6 -9 -14 0 -7 -10 -28 -23 -47 -12 -19
-23 -45 -24 -58 -1 -13 -11 -30 -22 -37 -11 -8 -25 -31 -32 -52 -6 -20 -23
-57 -37 -82 -47 -84 -52 -95 -52 -114 0 -11 -14 -44 -31 -74 -17 -30 -28 -57
-25 -60 3 -3 2 -10 -2 -16 -15 -19 -60 -159 -72 -221 -7 -33 -16 -65 -21 -71
-5 -6 -13 -31 -19 -55 -5 -24 -14 -64 -19 -89 -5 -25 -14 -70 -19 -100 -5 -30
-17 -80 -25 -110 -9 -30 -20 -107 -26 -170 -13 -146 -14 -653 -1 -785 10 -104
28 -203 41 -220 4 -5 10 -39 14 -75 7 -70 41 -208 55 -225 4 -5 11 -28 15 -50
8 -54 25 -116 37 -139 5 -10 16 -44 24 -75 16 -62 52 -141 66 -141 4 0 8 -15
9 -32 0 -18 11 -51 24 -73 26 -42 35 -62 68 -138 11 -26 24 -47 29 -47 4 0 11
-12 14 -27 4 -16 13 -35 20 -44 8 -8 19 -31 26 -50 18 -48 110 -188 125 -189
6 0 14 -12 18 -28 3 -15 16 -40 30 -57 78 -98 182 -234 191 -250 6 -11 22 -22
35 -25 14 -4 26 -15 29 -30 3 -14 16 -30 29 -36 12 -6 30 -27 39 -45 10 -19
34 -43 54 -54 22 -11 38 -28 38 -37 0 -10 5 -18 10 -18 6 0 34 -24 63 -54 29
-29 62 -56 74 -60 12 -4 31 -22 42 -41 11 -19 27 -35 35 -35 8 0 32 -16 53
-35 21 -19 43 -35 49 -35 6 0 26 -16 45 -35 37 -39 128 -99 136 -91 3 3 13 -4
22 -14 9 -11 43 -34 76 -51 33 -17 68 -40 78 -50 10 -10 30 -22 45 -26 31 -7
86 -37 121 -64 13 -11 31 -19 40 -19 9 0 26 -6 37 -14 11 -8 41 -22 65 -32 24
-9 68 -28 98 -41 29 -14 67 -27 84 -29 16 -2 47 -15 67 -29 20 -14 65 -32 101
-39 105 -23 162 -38 207 -58 59 -24 362 -38 862 -38 514 1 783 13 847 39 76
30 162 53 178 47 8 -3 17 -1 20 4 4 6 13 10 22 10 15 0 75 24 103 41 25 15 53
26 100 40 25 7 52 18 60 25 8 6 35 19 60 27 66 22 134 54 200 93 32 19 66 34
74 34 9 0 30 14 48 30 17 17 43 33 57 37 14 3 37 17 50 30 13 12 28 23 32 23
15 0 149 89 149 99 0 5 25 24 55 41 30 17 63 42 74 56 10 13 25 24 33 24 17 0
58 41 58 58 0 7 7 12 17 12 14 0 62 42 177 156 17 17 41 37 54 43 12 7 21 18
20 25 -2 7 26 42 62 78 70 71 97 101 121 139 9 13 31 39 48 58 18 19 41 52 52
73 11 21 24 38 30 38 5 0 16 15 24 33 7 18 30 50 49 72 20 21 36 44 36 51 0 7
12 26 26 43 14 17 23 35 20 40 -4 5 5 23 19 39 14 16 25 33 25 38 0 4 6 15 13
23 8 9 20 32 27 51 8 19 24 49 37 66 13 17 23 40 23 51 0 10 7 28 15 39 8 10
15 26 15 35 0 9 9 26 20 39 11 13 20 28 20 33 0 6 11 34 25 62 13 29 27 69 29
89 2 20 13 55 24 78 41 91 50 116 48 134 -4 28 12 92 32 122 15 23 41 113 43
152 1 14 18 129 54 365 9 59 14 183 14 360 0 270 -3 306 -45 530 -9 50 -18
115 -20 145 -5 76 -20 136 -49 195 -13 28 -25 66 -27 85 -1 19 -15 71 -31 115
-15 44 -32 96 -36 115 -4 19 -18 56 -29 82 -12 26 -22 54 -22 62 0 8 -4 17 -9
20 -11 7 -75 139 -72 149 1 5 -14 33 -34 62 -19 29 -35 59 -35 67 0 7 -14 33
-30 58 -17 25 -44 73 -61 107 -30 62 -156 242 -223 318 -19 22 -53 65 -75 95
-72 99 -255 290 -277 290 -8 0 -14 5 -14 11 0 16 -102 112 -134 127 -16 7 -44
28 -64 47 -64 61 -106 95 -117 95 -6 0 -28 16 -49 35 -21 19 -44 35 -50 35 -6
0 -26 16 -44 34 -19 19 -39 33 -46 30 -7 -3 -23 5 -37 17 -13 11 -42 30 -64
41 -22 11 -60 35 -85 53 -25 17 -58 35 -74 39 -16 4 -41 16 -54 27 -14 10 -36
19 -50 19 -13 0 -46 16 -72 35 -29 22 -51 31 -55 25 -4 -6 -12 -5 -21 5 -9 8
-22 15 -30 15 -8 0 -38 14 -67 30 -30 17 -65 30 -78 30 -13 0 -55 12 -94 26
-61 22 -122 41 -285 85 -19 5 -75 14 -124 19 -49 6 -94 14 -100 19 -6 4 -83
16 -171 26 -230 26 -553 26 -776 0z m366 -144 c22 -15 48 -43 57 -61 9 -18 22
-38 27 -43 16 -16 13 -91 -5 -139 -9 -24 -37 -63 -62 -87 -42 -42 -48 -44
-111 -48 -58 -4 -73 0 -121 24 -46 24 -59 38 -82 83 -15 30 -27 71 -27 90 -1
40 46 146 77 173 58 52 180 56 247 8z m-879 -214 c42 -30 53 -45 72 -101 17
-46 21 -70 14 -83 -5 -10 -12 -35 -16 -55 -7 -40 -57 -88 -125 -123 -102 -52
-263 48 -277 172 -8 65 24 141 79 188 44 38 67 44 148 40 46 -3 66 -10 105
-38z m1708 -2 c52 -40 90 -124 82 -181 -8 -62 -33 -105 -79 -139 -59 -42 -86
-54 -129 -55 -46 0 -81 15 -136 59 -72 57 -88 113 -63 218 17 68 81 125 150
133 75 9 133 -3 175 -35z m751 -94 c60 -27 102 -80 110 -138 19 -140 -70 -243
-209 -243 -67 0 -113 23 -169 84 -48 52 -57 137 -22 206 15 28 69 81 100 98
32 18 145 14 190 -7z m-3246 -148 c72 -43 92 -68 109 -137 10 -37 10 -57 1
-85 -19 -60 -38 -101 -47 -101 -5 0 -26 -13 -47 -30 -33 -26 -46 -30 -101 -30
-82 0 -141 26 -176 76 -35 51 -57 116 -50 151 16 88 134 190 222 192 14 1 54
-16 89 -36z m1561 -334 c64 -29 86 -54 106 -117 15 -47 16 -63 6 -111 -15 -73
-36 -100 -103 -133 -88 -44 -188 -30 -246 33 -29 32 -73 121 -73 148 0 24 40
105 68 137 52 61 160 80 242 43z m929 -64 c42 -21 100 -93 107 -132 11 -61 -1
-125 -32 -169 -31 -44 -97 -87 -151 -99 -45 -9 -129 30 -181 86 -33 36 -42 54
-48 96 -10 84 1 118 56 172 27 26 64 53 82 59 40 13 130 7 167 -13z m-1724
-78 c46 -26 93 -89 105 -140 13 -58 -21 -159 -63 -186 -17 -12 -45 -30 -62
-41 -69 -46 -199 -6 -257 78 -40 58 -48 133 -20 188 26 50 80 102 118 114 57
17 136 11 179 -13z m-1484 -192 c132 -45 177 -203 90 -318 -54 -73 -89 -91
-164 -85 -74 7 -133 41 -173 101 -49 74 -45 157 12 231 61 81 138 104 235 71z
m709 -6 c55 -24 88 -61 114 -133 19 -49 15 -86 -16 -151 -28 -61 -99 -105
-179 -112 -54 -5 -62 -3 -111 30 -42 27 -61 49 -88 101 -32 63 -33 68 -21 104
53 152 173 216 301 161z m3243 1 c123 -54 165 -209 84 -309 -66 -81 -201 -119
-251 -72 -12 12 -27 21 -33 21 -16 0 -62 57 -86 107 -19 38 -19 47 -8 98 31
136 170 210 294 155z m828 4 c31 -10 57 -27 69 -45 52 -72 66 -195 30 -253
-31 -52 -114 -99 -179 -104 -50 -4 -61 -1 -105 30 -36 24 -59 51 -84 96 -32
59 -33 64 -23 110 7 26 25 68 40 93 23 36 40 50 82 67 66 25 105 27 170 6z
m-2236 -477 c72 -9 153 -23 180 -31 130 -37 251 -79 266 -92 8 -8 25 -14 36
-14 23 0 129 -51 188 -90 22 -14 72 -48 111 -73 96 -64 224 -185 320 -304 97
-120 143 -195 247 -408 95 -191 128 -276 178 -455 17 -58 34 -118 39 -135 5
-16 21 -73 35 -125 14 -52 30 -104 36 -115 5 -11 18 -58 28 -105 11 -47 28
-111 39 -142 11 -31 30 -103 42 -160 12 -57 27 -115 35 -130 7 -15 16 -47 20
-70 6 -39 20 -93 45 -173 5 -16 12 -48 15 -70 8 -53 32 -147 56 -217 10 -32
19 -69 19 -84 0 -15 9 -52 19 -83 26 -77 38 -122 56 -219 30 -158 15 -160 186
18 119 124 148 150 145 128 -3 -16 -27 -50 -57 -80 -28 -29 -59 -64 -68 -78
-28 -44 -183 -222 -285 -328 -106 -109 -287 -261 -401 -336 -39 -25 -74 -49
-80 -53 -37 -29 -97 -65 -135 -83 -25 -11 -63 -31 -85 -44 -59 -35 -151 -79
-230 -111 -38 -15 -103 -43 -142 -62 -40 -18 -95 -38 -122 -43 -28 -5 -67 -16
-88 -25 -21 -9 -89 -27 -150 -41 -62 -13 -132 -31 -155 -39 -24 -9 -71 -18
-105 -22 -61 -6 -63 -5 -73 21 -5 15 -10 44 -10 64 0 21 -5 53 -10 72 -10 32
-35 183 -46 270 -8 61 -35 213 -49 275 -8 33 -19 101 -25 150 -10 91 -29 193
-56 297 -8 32 -14 75 -14 95 0 50 -26 158 -45 186 -8 13 -19 50 -24 83 -5 32
-17 84 -26 114 -35 118 -57 244 -47 272 10 26 9 27 -32 32 -22 3 -144 8 -271
11 -126 3 -245 7 -265 10 -19 2 -87 9 -150 16 -64 6 -146 21 -185 34 -38 13
-87 26 -107 30 -51 8 -349 147 -388 180 -8 7 -34 22 -57 34 -23 12 -65 41 -93
66 -28 25 -54 45 -59 45 -21 0 -231 236 -231 260 0 5 -13 32 -30 60 -16 28
-33 63 -36 78 -4 15 -18 51 -30 81 -22 50 -24 66 -24 233 0 129 4 193 14 227
57 181 70 220 87 253 11 21 19 43 19 51 0 22 55 120 138 247 132 201 370 413
557 495 33 15 83 37 110 50 113 54 314 105 415 105 25 0 52 5 60 10 24 16 591
6 745 -13z m-2284 -304 c17 -16 39 -36 49 -45 35 -32 51 -137 29 -195 -13 -35
-51 -76 -106 -114 -56 -39 -111 -39 -184 0 -76 40 -112 93 -117 175 -5 81 17
126 92 184 25 19 41 22 117 22 82 0 91 -2 120 -27z m-661 -49 c40 -20 109 -97
120 -132 9 -35 -1 -127 -19 -159 -5 -10 -31 -38 -57 -63 -47 -45 -48 -45 -118
-45 -85 1 -120 17 -171 80 -32 39 -38 54 -42 110 -4 41 -1 76 7 95 16 39 103
117 144 129 36 10 101 4 136 -15z m5175 3 c12 -7 42 -29 65 -51 48 -43 59 -77
60 -172 0 -58 -2 -62 -43 -105 -75 -78 -157 -99 -243 -60 -42 19 -100 88 -123
147 -32 80 50 214 154 252 34 13 96 7 130 -11z m741 -35 c110 -99 110 -225 -2
-325 -35 -32 -52 -39 -97 -44 -70 -7 -113 8 -164 56 -53 51 -77 114 -71 183 3
29 11 54 17 56 6 2 11 10 11 17 0 7 15 25 33 39 17 14 39 33 48 41 22 21 96
33 143 23 23 -5 58 -25 82 -46z m-6024 -817 c57 -36 94 -78 83 -95 -3 -6 -2
-10 3 -10 14 0 5 -125 -12 -157 -39 -76 -129 -129 -199 -118 -74 13 -161 68
-179 113 -30 78 -20 153 28 216 46 60 94 85 164 86 47 0 65 -6 112 -35z m645
23 c35 -15 103 -78 103 -95 0 -7 5 -13 10 -13 6 0 10 -35 10 -84 0 -82 -1 -85
-36 -128 -49 -59 -96 -82 -164 -82 -63 1 -101 18 -147 66 -42 43 -63 96 -63
157 0 42 6 56 41 101 55 70 91 90 161 90 31 0 70 -5 85 -12z m4664 -16 c24
-16 57 -43 72 -61 24 -29 27 -40 26 -104 0 -99 -14 -129 -78 -177 -52 -38 -58
-40 -126 -40 -90 0 -125 21 -173 103 -43 71 -45 113 -10 189 37 80 96 118 183
118 50 0 69 -5 106 -28z m851 -15 c37 -30 50 -50 68 -103 l22 -66 -27 -64
c-17 -39 -42 -77 -66 -99 -38 -34 -41 -35 -123 -35 -76 0 -87 2 -115 26 -40
33 -75 95 -90 156 -11 45 -9 52 18 106 19 38 43 67 68 84 53 36 60 38 134 35
59 -2 69 -6 111 -40z m-6139 -793 c56 -19 131 -97 141 -145 14 -73 7 -114 -29
-164 -49 -69 -95 -95 -170 -95 -87 0 -141 29 -182 100 -26 42 -33 65 -33 105
0 52 11 75 65 136 67 76 122 92 208 63z m5277 -12 c71 -36 101 -86 108 -183 4
-63 2 -72 -27 -117 -41 -64 -96 -92 -180 -92 -95 0 -131 23 -175 111 -20 39
-36 82 -36 94 0 41 59 142 100 170 75 52 132 56 210 17z m819 2 c57 -29 96
-78 120 -152 13 -37 12 -46 -9 -101 -26 -72 -81 -127 -135 -137 -51 -9 -136 1
-175 21 -35 18 -72 87 -91 171 -11 49 -10 51 25 107 39 61 64 81 124 103 55
19 82 17 141 -12z m-5385 -54 c106 -50 149 -146 116 -259 -11 -40 -71 -101
-115 -118 -44 -17 -136 -23 -159 -11 -35 19 -108 87 -122 114 -18 34 -18 138
0 172 53 102 181 148 280 102z m5145 -649 c21 -12 79 -81 99 -119 15 -30 14
-87 -1 -127 -18 -45 -58 -105 -69 -105 -6 0 -23 -11 -38 -24 -38 -31 -105 -41
-151 -22 -46 19 -117 88 -135 131 -36 86 2 200 82 254 42 27 51 29 119 26 41
-2 83 -9 94 -14z m-4001 -30 c17 -9 50 -38 72 -65 39 -47 40 -50 40 -126 0
-71 -2 -80 -30 -115 -16 -21 -30 -42 -30 -47 0 -32 -198 -53 -246 -25 -30 17
-72 69 -90 112 -11 27 -13 52 -8 94 8 68 21 96 67 139 64 62 145 73 225 33z
m-1526 -116 c89 -63 118 -201 60 -283 -31 -42 -53 -59 -102 -76 -105 -36 -181
-13 -246 75 -33 45 -36 56 -35 107 1 72 7 89 44 132 55 64 93 81 169 78 55 -3
75 -9 110 -33z m781 24 c29 -8 54 -26 82 -56 35 -40 40 -51 43 -109 2 -35 1
-80 -2 -99 -10 -53 -72 -110 -140 -130 -52 -15 -57 -15 -118 5 -77 26 -80 29
-111 88 -39 75 -40 177 -2 218 14 15 25 31 25 35 0 9 52 40 85 50 32 11 93 10
138 -2z m-198 -813 c91 -43 125 -105 125 -227 0 -47 -47 -104 -118 -145 -90
-50 -203 -15 -260 79 -54 91 -52 136 11 229 57 83 149 108 242 64z m935 -26
c60 -31 120 -116 120 -172 0 -91 -85 -204 -168 -225 -82 -21 -189 34 -233 119
-23 44 -25 124 -5 172 22 53 88 114 132 121 22 4 44 8 49 10 18 5 69 -7 105
-25z m927 9 c66 -25 133 -118 133 -186 0 -51 -50 -155 -88 -182 -56 -40 -111
-54 -160 -40 -56 15 -137 88 -153 137 -16 48 -14 134 5 169 16 30 69 84 101
101 26 15 125 15 162 1z m-960 -685 c57 -17 133 -79 133 -109 0 -8 5 -24 12
-35 18 -28 -4 -120 -38 -165 -56 -74 -160 -110 -230 -80 -93 39 -144 107 -144
193 0 90 56 173 131 197 58 18 71 18 136 -1z m1001 -168 c120 -76 121 -259 1
-342 -38 -26 -50 -29 -120 -29 -70 0 -81 3 -120 31 -54 39 -70 70 -77 149 -10
133 51 205 182 216 85 7 84 7 134 -25z"/>
<path d="M3440 4515 c-14 -8 -32 -15 -40 -15 -14 0 -62 -64 -89 -118 -17 -32
2 -126 35 -174 42 -60 85 -81 175 -86 l77 -4 50 41 c55 47 72 87 72 172 -1 93
-39 151 -123 187 -38 16 -126 15 -157 -3z"/>
<path d="M3799 2844 c-39 -24 -89 -110 -89 -151 0 -13 -4 -31 -9 -41 -5 -9
-15 -43 -22 -75 -13 -60 -6 -144 21 -262 6 -27 15 -70 21 -95 17 -76 50 -135
81 -149 57 -25 227 11 332 70 28 16 68 38 89 49 21 12 65 46 98 76 32 30 62
54 66 54 5 1 61 2 125 2 l117 2 58 -50 c56 -49 163 -118 250 -163 60 -30 234
-59 265 -44 13 6 29 13 37 15 7 2 22 33 32 68 10 36 27 91 38 122 24 67 32
169 22 299 -7 81 -13 105 -49 179 -56 116 -75 125 -205 91 -39 -10 -91 -22
-115 -25 -68 -10 -175 -81 -263 -175 l-78 -83 -108 -5 -108 -6 -89 97 c-48 53
-93 96 -99 96 -6 0 -33 15 -61 34 -40 27 -74 39 -156 55 -58 11 -119 25 -135
29 -24 7 -37 5 -66 -14z m1382 -104 c35 -19 59 -91 59 -179 0 -65 -3 -81 -15
-81 -8 0 -17 12 -20 28 -15 74 -28 100 -64 137 -37 37 -52 80 -34 98 10 10 52
8 74 -3z m-1006 -70 c3 -5 -1 -10 -9 -10 -9 0 -16 5 -16 10 0 6 4 10 9 10 6 0
13 -4 16 -10z m650 -30 c3 -5 1 -10 -4 -10 -6 0 -11 5 -11 10 0 6 2 10 4 10 3
0 8 -4 11 -10z m-245 -130 c21 -21 26 -65 10 -90 -8 -13 -10 -13 -10 -1 0 21
-40 61 -61 61 -24 0 -33 18 -19 35 18 21 57 18 80 -5z m-350 -50 c0 -5 -13
-10 -30 -10 -16 0 -30 5 -30 10 0 6 14 10 30 10 17 0 30 -4 30 -10z m624 1 c7
-11 -108 -26 -124 -16 -6 3 -8 11 -5 16 8 12 122 12 129 0z m-624 -151 c0 -15
-83 -49 -133 -56 -39 -5 -41 -4 -23 10 11 9 46 21 78 27 32 6 58 16 58 20 0 5
5 9 10 9 6 0 10 -5 10 -10z m580 -10 c0 -5 -2 -10 -4 -10 -3 0 -8 5 -11 10 -3
6 -1 10 4 10 6 0 11 -4 11 -10z m50 -11 c0 -6 7 -8 17 -5 19 8 83 -11 83 -25
0 -5 -8 -9 -19 -9 -31 0 -121 32 -115 41 8 13 34 11 34 -2z"/>
</g>
</svg>
