<?xml version="1.0" standalone="no"?>
<!DOCTYPE svg PUBLIC "-//W3C//DTD SVG 20010904//EN"
 "http://www.w3.org/TR/2001/REC-SVG-20010904/DTD/svg10.dtd">
<svg version="1.0" xmlns="http://www.w3.org/2000/svg"
 width="460.000000pt" height="460.000000pt" viewBox="0 0 460.000000 460.000000"
 preserveAspectRatio="xMidYMid meet">
<metadata>
Created by potrace 1.14, written by Peter Selinger 2001-2017
</metadata>
<g transform="translate(0.000000,460.000000) scale(0.100000,-0.100000)"
fill="#000000" stroke="none">
<path d="M1990 4584 c-302 -41 -630 -160 -900 -327 -63 -39 -140 -91 -170
-115 -30 -23 -68 -53 -85 -65 -42 -31 -285 -275 -315 -316 -14 -19 -47 -62
-74 -95 -26 -34 -57 -77 -67 -96 -21 -39 -24 -43 -91 -147 -95 -147 -241 -570
-263 -758 -3 -27 -9 -75 -14 -105 -11 -65 -11 -476 0 -534 4 -23 10 -61 13
-86 9 -63 15 -99 28 -145 5 -22 12 -47 13 -55 47 -206 222 -606 302 -688 7 -7
13 -18 13 -23 0 -14 103 -153 172 -231 345 -392 742 -630 1258 -753 153 -37
277 -47 538 -42 141 2 266 6 277 9 11 3 43 9 70 13 28 3 93 18 145 32 52 14
102 27 110 28 122 29 378 139 518 225 41 25 86 52 100 60 22 12 125 88 216
160 11 8 76 71 145 140 121 120 270 299 298 357 7 15 31 55 53 88 110 166 262
561 287 745 3 19 11 69 19 110 14 78 14 602 0 665 -3 17 -13 66 -22 110 -17
87 -68 269 -89 319 -7 17 -26 65 -41 106 -48 126 -171 359 -195 368 -5 2 -9 9
-9 17 0 17 -100 154 -180 245 -88 100 -251 259 -272 266 -10 3 -18 9 -18 14 0
5 -19 22 -42 38 -24 17 -55 41 -70 54 -15 13 -44 32 -65 43 -21 11 -40 22 -43
25 -10 10 -134 83 -195 116 -150 78 -466 183 -640 213 -33 5 -76 13 -95 16
-82 14 -516 14 -620 -1z"/>
</g>
</svg>
